# xmcd CD database file
#
# Track frame offsets:
#	150
#	14947
#	37240
#	78362
#	89820
#	102357
#	121052
#	137120
#	151815
#	167067
#	181790
#	195882
#	209402
#
# Disc length: 2976 seconds
#
# Revision: 0
# Processed by: cddbd v1.5.1PL0 Copyright (c) Steve Scherf et al.
# Submitted via: CDex 1.51
#
DISCID=ae0b9e0d
DTITLE=Various Artist - Louisiana Swamp Blues
DYEAR=1900
DGENRE=Blues
TTITLE0=Larry Garner - Kleptomaniac
TTITLE1=Larry Garner - PMS
TTITLE2=Larry Garner - Shut It Down
TTITLE3=Cora Jefferson - I'm In The Mood
TTITLE4=Cora Jefferson - Come To Me
TTITLE5=Tabby Thomas - Long About Midnight
TTITLE6=Tabby Thomas - Voodoo Party
TTITLE7=Tabby Thomas - Louisiana Woman
TTITLE8=Tabby Thomas - Big Fat Woman
TTITLE9=Tootsie - County Jail
TTITLE10=Rudi Richard - Big Mamou
TTITLE11=Silas Hogan - Let Me Be Your Hatchet
TTITLE12=Silas Hogan - Ain't It Sad
EXTD=
EXTT0=
EXTT1=
EXTT2=
EXTT3=
EXTT4=
EXTT5=
EXTT6=
EXTT7=
EXTT8=
EXTT9=
EXTT10=
EXTT11=
EXTT12=
PLAYORDER=
